<?xml version="1.0" encoding="UTF-8"?>
<svg id="Calque_1" data-name="Calque 1" xmlns="http://www.w3.org/2000/svg" viewBox="0 0 197.89 194.27">
  <path d="M50.41,76.57c-18.78,0-35.85,10.21-48.41,20.4,10.11-22.45,28.02-37.36,48.41-37.36s38.27,14.91,48.41,37.36c-12.56-10.19-29.62-20.4-48.41-20.4Z"/>
  <path d="M147.48,117.36c18.78,0,35.85-10.21,48.41-20.4-10.11,22.45-28.02,37.36-48.41,37.36s-38.27-14.91-48.41-37.36c12.56,10.19,29.62,20.4,48.41,20.4Z"/>
  <path d="M119.34,48.43C119.34,29.64,109.14,12.58,98.95.02c22.45,10.11,37.36,28.02,37.36,48.41s-14.91,38.27-37.36,48.41c10.19-12.56,20.4-29.62,20.4-48.41Z"/>
  <path d="M78.55,145.5c0,18.78,10.21,35.85,20.4,48.41-22.45-10.11-37.36-28.02-37.36-48.41s14.91-38.27,37.36-48.41c-10.19,12.56-20.4,29.62-20.4,48.41Z"/>
  <path d="M79.23,48.15c-13.23-13.33-32.5-18.25-48.58-19.99,23.06-8.64,46.26-6.44,60.62,8.03,14.36,14.47,16.38,37.66,7.58,60.68-1.61-16.09-6.39-35.39-19.62-48.73Z"/>
  <path d="M118.66,145.78c13.23,13.33,32.5,18.25,48.58,19.99-23.06,8.64-46.26,6.44-60.62-8.03-14.36-14.47-16.38-37.66-7.58-60.68,1.61,16.09,6.39,35.39,19.62,48.73Z"/>
  <path d="M147.77,77.25c13.33-13.23,18.25-32.5,19.99-48.58,8.64,23.06,6.44,46.26-8.03,60.62-14.47,14.36-37.66,16.38-60.68,7.58,16.09-1.61,35.39-6.39,48.73-19.62Z"/>
  <path d="M50.13,116.68c-13.33,13.23-18.25,32.5-19.99,48.58-8.64-23.06-6.44-46.26,8.03-60.62,14.47-14.36,37.66-16.38,60.68-7.58-16.09,1.61-35.39,6.39-48.73,19.62Z"/>
</svg>