<?xml version="1.0" encoding="UTF-8"?>
<svg id="Calque_1" data-name="Calque 1" xmlns="http://www.w3.org/2000/svg" viewBox="0 0 197.89 194.27">
  <path d="M49.41,31.47c-19.17,0-36.59,10.42-49.41,20.82C10.32,29.37,28.6,14.15,49.41,14.15s39.06,15.22,49.41,38.14c-12.82-10.4-30.24-20.82-49.41-20.82Z"/>
  <path d="M148.49,73.1c19.17,0,36.59-10.42,49.41-20.82-10.32,22.92-28.6,38.14-49.41,38.14s-39.06-15.22-49.41-38.14c12.82,10.4,30.24,20.82,49.41,20.82Z"/>
  <path d="M49.41,76.32c-19.17,0-36.59,10.42-49.41,20.82,10.32-22.92,28.6-38.14,49.41-38.14s39.06,15.22,49.41,38.14c-12.82-10.4-30.24-20.82-49.41-20.82Z"/>
  <path d="M148.49,117.96c19.17,0,36.59-10.42,49.41-20.82-10.32,22.92-28.6,38.14-49.41,38.14s-39.06-15.22-49.41-38.14c12.82,10.4,30.24,20.82,49.41,20.82Z"/>
  <path d="M49.41,121.17c-19.17,0-36.59,10.42-49.41,20.82,10.32-22.92,28.6-38.14,49.41-38.14s39.06,15.22,49.41,38.14c-12.82-10.4-30.24-20.82-49.41-20.82Z"/>
  <path d="M148.49,162.81c19.17,0,36.59-10.42,49.41-20.82-10.32,22.92-28.6,38.14-49.41,38.14s-39.06-15.22-49.41-38.14c12.82,10.4,30.24,20.82,49.41,20.82Z"/>
</svg>