<?xml version="1.0" encoding="UTF-8"?>
<svg id="Calque_1" data-name="Calque 1" xmlns="http://www.w3.org/2000/svg" viewBox="0 0 197.89 194.27">
  <path d="M105.36,12.79c.03-7.21-5.09-10.12-12.85-12.63l-.17,71.59c-.03,7.21,6.64,10.83,13.04,13.01l-.02-71.97Z"/>
  <path d="M105.36,122.16c.03-7.21-5.09-10.12-12.85-12.63l-.17,71.59c-.03,7.21,6.64,10.83,13.04,13.01l-.02-71.97Z"/>
  <path d="M183.3,103.55c7.21.03,10.12-5.09,12.63-12.85l-71.59-.17c-7.21-.03-10.83,6.64-13.01,13.04l71.97-.02Z"/>
  <path d="M73.93,103.55c7.21.03,10.12-5.09,12.63-12.85l-71.59-.17c-7.21-.03-10.83,6.64-13.01,13.04l71.97-.02Z"/>
</svg>