<?xml version="1.0" encoding="UTF-8"?>
<svg id="Calque_1" data-name="Calque 1" xmlns="http://www.w3.org/2000/svg" viewBox="0 0 197.89 194.27">
  <path d="M0,77.78c6.98-.1,14.68-1.51,16.94-8.46L39.52.35c-8.42,0-14.37,1.21-16.63,8.16L0,77.78Z"/>
  <path d="M56.15,8.51C53.89,1.56,47.94.35,39.52.35l22.58,68.97c2.26,6.95,9.96,8.36,16.94,8.46L56.15,8.51Z"/>
  <path d="M79.05,77.78c6.98-.1,14.68-1.51,16.94-8.46L118.57.35c-8.42,0-14.37,1.21-16.63,8.16l-22.89,69.27Z"/>
  <path d="M135.2,8.51C132.94,1.56,126.99.35,118.57.35l22.58,68.97c2.26,6.95,9.96,8.36,16.94,8.46l-22.89-69.27Z"/>
  <path d="M158.37,77.78c6.98-.1,14.68-1.51,16.94-8.46L197.89.35c-8.42,0-14.37,1.21-16.63,8.16l-22.89,69.27Z"/>
  <path d="M0,193.92c6.98-.1,14.68-1.51,16.94-8.46l22.58-68.97c-8.42,0-14.37,1.21-16.63,8.16L0,193.92Z"/>
  <path d="M56.15,124.65c-2.26-6.95-8.21-8.16-16.63-8.16l22.58,68.97c2.26,6.95,9.96,8.36,16.94,8.46l-22.89-69.27Z"/>
  <path d="M79.05,193.92c6.98-.1,14.68-1.51,16.94-8.46l22.58-68.97c-8.42,0-14.37,1.21-16.63,8.16l-22.89,69.27Z"/>
  <path d="M135.2,124.65c-2.26-6.95-8.21-8.16-16.63-8.16l22.58,68.97c2.26,6.95,9.96,8.36,16.94,8.46l-22.89-69.27Z"/>
  <path d="M158.37,193.92c6.98-.1,14.68-1.51,16.94-8.46l22.58-68.97c-8.42,0-14.37,1.21-16.63,8.16l-22.89,69.27Z"/>
</svg>