<?xml version="1.0" encoding="UTF-8"?>
<svg id="Calque_1" data-name="Calque 1" xmlns="http://www.w3.org/2000/svg" viewBox="0 0 197.89 194.27">
  <g>
    <path d="M98.66,29.54c-18.68,0-35.66,10.15-48.16,20.29,10.06-22.34,27.87-37.17,48.16-37.17s38.07,14.83,48.16,37.17c-12.49-10.14-29.47-20.29-48.16-20.29Z"/>
    <path d="M98.66,70.12c18.68,0,35.66-10.15,48.16-20.29-10.06,22.34-27.87,37.17-48.16,37.17s-38.07-14.83-48.16-37.17c12.49,10.14,29.47,20.29,48.16,20.29Z"/>
  </g>
  <path d="M31.29,49.83c0,18.68,10.15,35.66,20.29,48.16-22.34-10.06-37.17-27.87-37.17-48.16S29.24,11.76,51.58,1.67c-10.14,12.49-20.29,29.47-20.29,48.16Z"/>
  <path d="M163.93,49.83c0-18.68-10.15-35.66-20.29-48.16,22.34,10.06,37.17,27.87,37.17,48.16s-14.83,38.07-37.17,48.16c10.14-12.49,20.29-29.47,20.29-48.16Z"/>
  <g>
    <path d="M98.66,126.68c-18.68,0-35.66,10.15-48.16,20.29,10.06-22.34,27.87-37.17,48.16-37.17s38.07,14.83,48.16,37.17c-12.49-10.14-29.47-20.29-48.16-20.29Z"/>
    <path d="M98.66,167.27c18.68,0,35.66-10.15,48.16-20.29-10.06,22.34-27.87,37.17-48.16,37.17s-38.07-14.83-48.16-37.17c12.49,10.14,29.47,20.29,48.16,20.29Z"/>
  </g>
  <path d="M31.29,146.98c0,18.68,10.15,35.66,20.29,48.16-22.34-10.06-37.17-27.87-37.17-48.16s14.83-38.07,37.17-48.16c-10.14,12.49-20.29,29.47-20.29,48.16Z"/>
  <path d="M163.93,146.98c0-18.68-10.15-35.66-20.29-48.16,22.34,10.06,37.17,27.87,37.17,48.16s-14.83,38.07-37.17,48.16c10.14-12.49,20.29-29.47,20.29-48.16Z"/>
</svg>