<?xml version="1.0" encoding="UTF-8"?>
<svg id="Calque_1" data-name="Calque 1" xmlns="http://www.w3.org/2000/svg" viewBox="0 0 197.89 194.27">
  <path d="M166.08,48.89c0-18.68-10.15-35.66-20.29-48.16,22.34,10.06,37.17,27.87,37.17,48.16s-14.83,38.07-37.17,48.16c10.14-12.49,20.29-29.47,20.29-48.16Z"/>
  <path d="M140.22,48.89c0-12.56-6.82-23.97-13.64-32.37,15.02,6.76,24.99,18.74,24.99,32.37s-9.97,25.59-24.99,32.37c6.82-8.4,13.64-19.81,13.64-32.37Z"/>
  <path d="M114.86,48.89c0-8.5-4.62-16.23-9.23-21.91,10.16,4.58,16.91,12.68,16.91,21.91s-6.75,17.32-16.91,21.91c4.61-5.68,9.23-13.41,9.23-21.91Z"/>
  <path d="M31.82,48.89c0,18.68,10.15,35.66,20.29,48.16-22.34-10.06-37.17-27.87-37.17-48.16S29.77,10.82,52.11.73c-10.14,12.49-20.29,29.47-20.29,48.16Z"/>
  <path d="M57.68,48.89c0,12.56,6.82,23.97,13.64,32.37-15.02-6.76-24.99-18.74-24.99-32.37s9.97-25.59,24.99-32.37c-6.82,8.4-13.64,19.81-13.64,32.37Z"/>
  <path d="M83.03,48.89c0,8.5,4.62,16.23,9.23,21.91-10.16-4.58-16.91-12.68-16.91-21.91s6.75-17.32,16.91-21.91c-4.61,5.68-9.23,13.41-9.23,21.91Z"/>
  <path d="M166.08,145.86c0-18.68-10.15-35.66-20.29-48.16,22.34,10.06,37.17,27.87,37.17,48.16s-14.83,38.07-37.17,48.16c10.14-12.49,20.29-29.47,20.29-48.16Z"/>
  <path d="M140.22,145.86c0-12.56-6.82-23.97-13.64-32.37,15.02,6.76,24.99,18.74,24.99,32.37s-9.97,25.59-24.99,32.37c6.82-8.4,13.64-19.81,13.64-32.37Z"/>
  <path d="M114.86,145.86c0-8.5-4.62-16.23-9.23-21.91,10.16,4.58,16.91,12.68,16.91,21.91s-6.75,17.32-16.91,21.91c4.61-5.68,9.23-13.41,9.23-21.91Z"/>
  <path d="M31.82,145.86c0,18.68,10.15,35.66,20.29,48.16-22.34-10.06-37.17-27.87-37.17-48.16s14.83-38.07,37.17-48.16c-10.14,12.49-20.29,29.47-20.29,48.16Z"/>
  <path d="M57.68,145.86c0,12.56,6.82,23.97,13.64,32.37-15.02-6.76-24.99-18.74-24.99-32.37s9.97-25.59,24.99-32.37c-6.82,8.4-13.64,19.81-13.64,32.37Z"/>
  <path d="M83.03,145.86c0,8.5,4.62,16.23,9.23,21.91-10.16-4.58-16.91-12.68-16.91-21.91s6.75-17.32,16.91-21.91c-4.61,5.68-9.23,13.41-9.23,21.91Z"/>
</svg>