<?xml version="1.0" encoding="UTF-8"?>
<svg id="Calque_1" data-name="Calque 1" xmlns="http://www.w3.org/2000/svg" viewBox="0 0 197.89 194.27">
  <path d="M61.51.18c-5.18,5.34-9.9,12.23-6.27,19.27l35.98,70.02c6.34-6.34,9.9-11.76,6.27-18.8L61.51.18Z"/>
  <path d="M72.42,95.73c7.04,3.64,12.46.08,18.8-6.27L21.2,53.49c-7.04-3.64-13.93,1.08-19.27,6.27l70.49,35.98Z"/>
  <path d="M1.39,134.63c5.34,5.18,12.23,9.9,19.27,6.27l70.02-35.98c-6.34-6.34-11.76-9.9-18.8-6.27L1.39,134.63Z"/>
  <path d="M96.94,123.72c3.64-7.04.08-12.46-6.27-18.8l-35.98,70.02c-3.64,7.04,1.08,13.93,6.27,19.27l35.98-70.49Z"/>
  <path d="M135.84,194.21c5.18-5.34,9.9-12.23,6.27-19.27l-35.98-70.02c-6.34,6.34-9.9,11.76-6.27,18.8l35.98,70.49Z"/>
  <path d="M124.93,98.65c-7.04-3.64-12.46-.08-18.8,6.27l70.02,35.98c7.04,3.64,13.93-1.08,19.27-6.27l-70.49-35.98Z"/>
  <path d="M195.96,59.76c-5.34-5.18-12.23-9.9-19.27-6.27l-70.02,35.98c6.34,6.34,11.76,9.9,18.8,6.27l70.49-35.98Z"/>
  <path d="M100.41,70.67c-3.64,7.04-.08,12.46,6.27,18.8l35.98-70.02c3.64-7.04-1.08-13.93-6.27-19.27l-35.98,70.49Z"/>
</svg>