<?xml version="1.0" encoding="UTF-8"?>
<svg id="Calque_1" data-name="Calque 1" xmlns="http://www.w3.org/2000/svg" viewBox="0 0 197.89 194.27">
  <g>
    <path d="M122.65,98.36c0-21.83-11.86-41.66-23.7-56.25,26.09,11.75,43.42,32.56,43.42,56.25s-17.33,44.47-43.42,56.25c11.84-14.6,23.7-34.43,23.7-56.25Z"/>
    <path d="M75.24,98.36c0,21.83,11.86,41.66,23.7,56.25-26.09-11.75-43.42-32.56-43.42-56.25s17.33-44.47,43.42-56.25c-11.84,14.6-23.7,34.43-23.7,56.25Z"/>
  </g>
  <path d="M98.95,19.67c-21.83,0-41.66,11.86-56.25,23.7C54.44,17.28,75.25-.05,98.95-.05s44.47,17.33,56.25,43.42c-14.6-11.84-34.43-23.7-56.25-23.7Z"/>
  <path d="M98.95,174.61c21.83,0,41.66-11.86,56.25-23.7-11.75,26.09-32.56,43.42-56.25,43.42s-44.47-17.33-56.25-43.42c14.6,11.84,34.43,23.7,56.25,23.7Z"/>
  <path d="M176.42,97.14c0-21.83-11.86-41.66-23.7-56.25,26.09,11.75,43.42,32.56,43.42,56.25s-17.33,44.47-43.42,56.25c11.84-14.6,23.7-34.43,23.7-56.25Z"/>
  <path d="M21.48,97.14c0,21.83,11.86,41.66,23.7,56.25C19.09,141.64,1.76,120.83,1.76,97.14s17.33-44.47,43.42-56.25c-11.84,14.6-23.7,34.43-23.7,56.25Z"/>
</svg>